# Blender v2.92.0 OBJ File: ''
# www.blender.org
mtllib tree1.mtl
o Cylinder
v -0.032891 -4.966197 -0.253986
v -0.041694 -5.726822 0.022685
v -0.051272 -5.726755 0.026171
v -0.217060 -4.964912 -0.186952
v -0.056369 -5.726719 0.034998
v -0.309002 -4.900942 -0.023413
v -0.054599 -5.726731 0.045036
v -0.281020 -4.964465 0.175798
v -0.046790 -5.726786 0.051588
v -0.130885 -4.965513 0.301780
v -0.036597 -5.726857 0.051588
v 0.071154 -4.903596 0.295584
v -0.028790 -5.726912 0.045036
v 0.215239 -4.967930 0.175798
v -0.027020 -5.726924 0.034998
v 0.249272 -4.968167 -0.017217
v -0.032116 -5.726889 0.026171
v 0.157329 -4.904198 -0.193148
v 0.011091 -1.690615 -0.939428
v -0.631682 -1.686128 -0.705472
v -0.972339 -1.489668 -0.113076
v -0.853559 -1.490497 0.560572
v -0.330921 -1.688227 1.000265
v 0.359153 -1.629717 0.994068
v 0.878449 -1.502588 0.560572
v 0.997228 -1.503417 -0.113076
v 0.661269 -1.437744 -0.711668
v 1.169796 -1.453288 -0.150182
v 0.866076 -2.052648 -0.094124
v 0.573236 -1.987276 -0.618026
v 0.774520 -1.387201 -0.851516
v 0.005455 -2.046640 -0.816288
v 0.014219 -1.445221 -1.119851
v 1.030417 -1.452315 0.640299
v 0.762273 -2.051923 0.494589
v 0.421598 -1.384737 1.150053
v 0.310397 -1.985441 0.872648
v -0.387110 -1.442419 1.156250
v -0.293435 -2.044553 0.878845
v -1.001980 -1.438126 0.640300
v -0.751361 -2.041357 0.494589
v -1.135309 -1.373868 -0.156378
v -0.855165 -2.040632 -0.094124
v -0.740032 -1.439955 -0.845319
v -0.556274 -2.042719 -0.611830
v 0.458816 -4.196106 -0.047718
v 0.145410 -5.017534 0.010068
v 0.089641 -4.953816 -0.103204
v 0.297693 -4.131653 -0.343475
v -0.032591 -5.016292 -0.139296
v -0.022542 -4.192746 -0.451635
v 0.400757 -4.195701 0.281558
v 0.123940 -5.017385 0.131830
v 0.150682 -4.130628 0.490282
v 0.035279 -4.953437 0.205109
v -0.189716 -4.191579 0.496478
v -0.094410 -5.015861 0.211305
v -0.445841 -4.189791 0.281558
v -0.189122 -5.015199 0.131830
v -0.497850 -4.126099 -0.053915
v -0.210591 -5.015049 0.010068
v -0.336727 -4.190553 -0.337279
v -0.148773 -5.015481 -0.097008
v -0.011169 -3.342642 -0.671042
v -0.022713 -4.245293 -0.315061
v -0.254571 -4.243674 -0.230669
v -0.469647 -3.339441 -0.504165
v -0.377940 -4.242813 -0.016983
v -0.707548 -3.274451 -0.087815
v -0.335094 -4.243112 0.226012
v -0.628875 -3.338329 0.398883
v -0.146082 -4.244431 0.384616
v -0.255120 -3.340938 0.712509
v 0.106707 -4.182869 0.378420
v 0.238834 -3.281059 0.706312
v 0.289668 -4.247474 0.226012
v 0.606538 -3.346954 0.398883
v 0.332513 -4.247773 -0.016983
v 0.691261 -3.347545 -0.081619
v 0.453361 -3.282557 -0.510362
v 0.215195 -4.183625 -0.236866
v 0.863677 -2.584875 -0.105654
v 0.538932 -3.398545 -0.046827
v 0.353711 -3.333924 -0.384325
v 0.569447 -2.519494 -0.631965
v -0.011815 -3.394701 -0.508971
v -0.000949 -2.578840 -0.831178
v 0.759390 -2.584148 0.485799
v 0.472504 -3.398081 0.329916
v 0.305383 -2.517650 0.865646
v 0.185508 -3.332749 0.569622
v -0.301230 -2.576744 0.871843
v -0.203088 -3.393365 0.575818
v -0.761288 -2.573531 0.485799
v -0.496135 -3.391319 0.329917
v -0.859523 -2.509518 -0.111850
v -0.562564 -3.390856 -0.046827
v -0.565293 -2.574901 -0.625769
v -0.371291 -3.392191 -0.378129
v 0.006969 -1.987095 -0.997131
v -0.002102 -2.636507 -0.681816
v -0.475331 -2.633204 -0.509570
v -0.666319 -1.982396 -0.752068
v -0.727132 -2.631445 -0.073428
v -1.018517 -1.916609 -0.137744
v -0.639683 -2.632056 0.422534
v -0.900149 -1.980763 0.574081
v -0.253902 -2.634750 0.746250
v -0.351281 -1.984595 1.034648
v 0.255750 -2.574979 0.740054
v 0.371268 -1.926311 1.028452
v 0.635480 -2.640959 0.422534
v 0.914087 -1.993429 0.574081
v 0.722928 -2.641568 -0.073428
v 1.038504 -1.994296 -0.131548
v 0.686307 -1.928510 -0.758265
v 0.477179 -2.576525 -0.515766
v 0.028061 -1.185774 -0.264436
v 0.023913 -1.779989 -0.373037
v -0.226031 -1.778244 -0.282063
v -0.152077 -1.184516 -0.198870
v -0.359024 -1.777315 -0.051708
v -0.247927 -1.183847 -0.032850
v -0.312836 -1.777637 0.210242
v -0.214639 -1.184080 0.155942
v -0.109080 -1.779060 0.381218
v -0.067788 -1.185105 0.279167
v 0.156905 -1.780917 0.381218
v 0.123911 -1.186443 0.279166
v 0.360661 -1.782339 0.210242
v 0.270760 -1.187468 0.155942
v 0.406849 -1.782662 -0.051708
v 0.304048 -1.187701 -0.032850
v 0.273857 -1.781733 -0.282063
v 0.208199 -1.187032 -0.198870
v 0.032119 -0.604571 -0.373037
v -0.217825 -0.602826 -0.282063
v -0.350818 -0.601898 -0.051708
v -0.304630 -0.602220 0.210242
v -0.100874 -0.603643 0.381218
v 0.165110 -0.605499 0.381218
v 0.368866 -0.606922 0.210242
v 0.415054 -0.607244 -0.051708
v 0.282063 -0.606316 -0.282063
vn -0.3260 -0.3198 -0.8896
vn -0.8751 -0.2961 -0.3827
vn -0.9557 -0.2905 0.0477
vn -0.6130 -0.3070 0.7280
vn 0.1143 -0.2973 0.9479
vn 0.5292 -0.3052 0.7917
vn 0.9304 -0.3275 0.1645
vn -0.0070 -1.0000 -0.0000
vn 0.3787 -0.3195 -0.8686
vn 0.7876 -0.3221 -0.5253
vn -0.0345 0.9994 0.0024
vn 0.7637 -0.4364 -0.4757
vn 0.3326 -0.4327 -0.8379
vn 0.8868 -0.4347 0.1569
vn 0.5481 -0.4268 0.7193
vn 0.0426 -0.4190 0.9070
vn -0.5873 -0.4122 0.6965
vn -0.9106 -0.3896 0.1376
vn -0.8051 -0.3969 -0.4408
vn -0.3123 -0.4244 -0.8499
vn 0.7814 -0.3425 -0.5217
vn 0.3759 -0.3394 -0.8623
vn 0.9255 -0.3416 0.1636
vn 0.5254 -0.3324 0.7832
vn 0.1104 -0.3264 0.9388
vn -0.6101 -0.3211 0.7244
vn -0.9459 -0.3056 0.1093
vn -0.8466 -0.3114 -0.4317
vn -0.3247 -0.3319 -0.8857
vn -0.3233 -0.3436 -0.8817
vn -0.8348 -0.3246 -0.4447
vn -0.9389 -0.3195 0.1283
vn -0.6071 -0.3348 0.7207
vn 0.0711 -0.3414 0.9372
vn 0.5509 -0.3480 0.7585
vn 0.9205 -0.3552 0.1627
vn 0.3554 -0.3515 -0.8661
vn 0.7882 -0.3555 -0.5024
vn 0.7932 -0.3563 -0.4939
vn 0.3461 -0.3521 -0.8696
vn 0.9204 -0.3556 0.1627
vn 0.5640 -0.3485 0.7487
vn 0.0527 -0.3412 0.9385
vn -0.6072 -0.3343 0.7208
vn -0.9382 -0.3177 0.1375
vn -0.8313 -0.3235 -0.4520
vn -0.3233 -0.3439 -0.8816
vn -0.3143 -0.4111 -0.8557
vn -0.8104 -0.3854 -0.4412
vn -0.9156 -0.3785 0.1357
vn -0.5909 -0.3994 0.7009
vn 0.0481 -0.4060 0.9126
vn 0.5485 -0.4135 0.7268
vn 0.8931 -0.4212 0.1580
vn 0.3375 -0.4191 -0.8429
vn 0.7679 -0.4228 -0.4812
vn -0.1763 0.8640 0.4715
vn -0.4287 0.8597 0.2777
vn -0.4449 0.8920 -0.0795
vn -0.0281 0.8166 -0.5765
vn -0.3269 0.8263 -0.4586
vn 0.3110 0.8782 -0.3633
vn 0.6555 0.7537 0.0485
vn 0.6242 0.7618 0.1734
vn 0.1502 0.9061 0.3954
vn 0.1360 0.9246 0.3559
vn 0.5416 0.8158 0.2028
vn 0.5929 0.8052 -0.0082
vn 0.2755 0.9062 -0.3207
vn -0.1922 0.8884 -0.4170
vn -0.1094 0.8866 -0.4495
vn -0.3923 0.9172 -0.0703
vn -0.2969 0.9098 0.2901
vn -0.2233 0.9106 0.3477
vn -0.2072 0.9394 0.2733
vn -0.2257 0.9393 0.2586
vn -0.3291 0.9425 -0.0592
vn -0.1143 0.9263 -0.3590
vn -0.1315 0.9266 -0.3523
vn 0.2329 0.9344 -0.2697
vn 0.5188 0.8545 -0.0235
vn 0.4679 0.8627 0.1920
vn 0.1173 0.9454 0.3041
vn 0.1366 0.9238 0.3577
vn 0.5089 0.8285 0.2339
vn 0.5752 0.8165 -0.0494
vn 0.2723 0.9085 -0.3170
vn -0.1009 0.9045 -0.4144
vn -0.1776 0.9059 -0.3844
vn -0.3863 0.9198 -0.0692
vn -0.2168 0.9217 0.3218
vn -0.2735 0.9213 0.2765
vn -0.2368 0.9414 0.2401
vn -0.1872 0.9415 0.2801
vn -0.3316 0.9415 -0.0596
vn -0.1507 0.9320 -0.3297
vn -0.0857 0.9309 -0.3550
vn 0.2347 0.9332 -0.2720
vn 0.5049 0.8621 -0.0432
vn 0.4483 0.8699 0.2057
vn 0.1199 0.9427 0.3114
vn 0.2856 0.5653 0.7738
vn 0.7012 0.6609 0.2673
vn 0.4710 0.8811 -0.0418
vn 0.5167 0.7203 -0.4627
vn -0.0485 0.5363 -0.8427
vn -0.4583 0.7335 -0.5019
vn -0.2889 0.9559 -0.0521
vn -0.3611 0.7466 0.5587
vn -0.2051 0.9554 0.2122
vn -0.3359 0.1716 -0.9261
vn -0.8523 0.1752 -0.4928
vn -0.9694 0.1760 0.1711
vn -0.6323 0.1737 0.7550
vn 0.0012 0.1693 0.9856
vn 0.6347 0.1648 0.7550
vn 0.9718 0.1625 0.1711
vn 0.3383 0.1669 -0.9261
vn 0.8547 0.1633 -0.4928
vn 0.0070 1.0000 -0.0000
vn 0.8517 -0.1789 -0.4925
vn 0.3357 -0.1753 -0.9255
vn 0.9687 -0.1797 0.1710
vn 0.6319 -0.1774 0.7545
vn -0.0012 -0.1729 0.9849
vn -0.6343 -0.1685 0.7545
vn -0.9712 -0.1662 0.1710
vn -0.8542 -0.1670 -0.4925
vn -0.3381 -0.1706 -0.9255
usemtl Leaves
s 1
f 1//1 2//1 3//1 4//1
f 4//2 3//2 5//2 6//2
f 6//3 5//3 7//3 8//3
f 8//4 7//4 9//4 10//4
f 10//5 9//5 11//5 12//5
f 12//6 11//6 13//6 14//6
f 14//7 13//7 15//7 16//7
f 3//8 2//8 17//8 15//8 13//8 11//8 9//8 7//8 5//8
f 18//9 17//9 2//9 1//9
f 16//10 15//10 17//10 18//10
f 19//11 20//11 21//11 22//11 23//11 24//11 25//11 26//11 27//11
f 28//12 29//12 30//12 31//12
f 31//13 30//13 32//13 33//13
f 34//14 35//14 29//14 28//14
f 36//15 37//15 35//15 34//15
f 38//16 39//16 37//16 36//16
f 40//17 41//17 39//17 38//17
f 42//18 43//18 41//18 40//18
f 44//19 45//19 43//19 42//19
f 33//20 32//20 45//20 44//20
f 46//21 47//21 48//21 49//21
f 49//22 48//22 50//22 51//22
f 52//23 53//23 47//23 46//23
f 54//24 55//24 53//24 52//24
f 56//25 57//25 55//25 54//25
f 58//26 59//26 57//26 56//26
f 60//27 61//27 59//27 58//27
f 62//28 63//28 61//28 60//28
f 51//29 50//29 63//29 62//29
f 64//30 65//30 66//30 67//30
f 67//31 66//31 68//31 69//31
f 69//32 68//32 70//32 71//32
f 71//33 70//33 72//33 73//33
f 73//34 72//34 74//34 75//34
f 75//35 74//35 76//35 77//35
f 77//36 76//36 78//36 79//36
f 80//37 81//37 65//37 64//37
f 79//38 78//38 81//38 80//38
f 82//39 83//39 84//39 85//39
f 85//40 84//40 86//40 87//40
f 88//41 89//41 83//41 82//41
f 90//42 91//42 89//42 88//42
f 92//43 93//43 91//43 90//43
f 94//44 95//44 93//44 92//44
f 96//45 97//45 95//45 94//45
f 98//46 99//46 97//46 96//46
f 87//47 86//47 99//47 98//47
f 100//48 101//48 102//48 103//48
f 103//49 102//49 104//49 105//49
f 105//50 104//50 106//50 107//50
f 107//51 106//51 108//51 109//51
f 109//52 108//52 110//52 111//52
f 111//53 110//53 112//53 113//53
f 113//54 112//54 114//54 115//54
f 116//55 117//55 101//55 100//55
f 115//56 114//56 117//56 116//56
f 47//57 16//57 18//57 48//57
f 48//58 18//58 1//58 50//58
f 53//59 14//59 16//59 47//59
f 55//60 12//60 14//60 53//60
f 57//61 10//61 12//61 55//61
f 59//62 8//62 10//62 57//62
f 61//63 6//63 8//63 59//63
f 63//64 4//64 6//64 61//64
f 50//65 1//65 4//65 63//65
f 65//66 51//66 62//66 66//66
f 66//67 62//67 60//67 68//67
f 68//68 60//68 58//68 70//68
f 70//69 58//69 56//69 72//69
f 72//70 56//70 54//70 74//70
f 74//71 54//71 52//71 76//71
f 76//72 52//72 46//72 78//72
f 81//73 49//73 51//73 65//73
f 78//74 46//74 49//74 81//74
f 83//75 79//75 80//75 84//75
f 84//76 80//76 64//76 86//76
f 89//77 77//77 79//77 83//77
f 91//78 75//78 77//78 89//78
f 93//79 73//79 75//79 91//79
f 95//80 71//80 73//80 93//80
f 97//81 69//81 71//81 95//81
f 99//82 67//82 69//82 97//82
f 86//83 64//83 67//83 99//83
f 101//84 87//84 98//84 102//84
f 102//85 98//85 96//85 104//85
f 104//86 96//86 94//86 106//86
f 106//87 94//87 92//87 108//87
f 108//88 92//88 90//88 110//88
f 110//89 90//89 88//89 112//89
f 112//90 88//90 82//90 114//90
f 117//91 85//91 87//91 101//91
f 114//92 82//92 85//92 117//92
f 29//93 115//93 116//93 30//93
f 30//94 116//94 100//94 32//94
f 35//95 113//95 115//95 29//95
f 37//96 111//96 113//96 35//96
f 39//97 109//97 111//97 37//97
f 41//98 107//98 109//98 39//98
f 43//99 105//99 107//99 41//99
f 45//100 103//100 105//100 43//100
f 32//101 100//101 103//101 45//101
f 19//102 33//102 44//102 20//102
f 20//103 44//103 42//103 21//103
f 21//104 42//104 40//104 22//104
f 22//105 40//105 38//105 23//105
f 23//106 38//106 36//106 24//106
f 24//107 36//107 34//107 25//107
f 25//108 34//108 28//108 26//108
f 27//109 31//109 33//109 19//109
f 26//110 28//110 31//110 27//110
usemtl Bark
f 118//111 119//111 120//111 121//111
f 121//112 120//112 122//112 123//112
f 123//113 122//113 124//113 125//113
f 125//114 124//114 126//114 127//114
f 127//115 126//115 128//115 129//115
f 129//116 128//116 130//116 131//116
f 131//117 130//117 132//117 133//117
f 120//8 119//8 134//8 132//8 130//8 128//8 126//8 124//8 122//8
f 135//118 134//118 119//118 118//118
f 133//119 132//119 134//119 135//119
f 136//120 137//120 138//120 139//120 140//120 141//120 142//120 143//120 144//120
f 143//121 133//121 135//121 144//121
f 144//122 135//122 118//122 136//122
f 142//123 131//123 133//123 143//123
f 141//124 129//124 131//124 142//124
f 140//125 127//125 129//125 141//125
f 139//126 125//126 127//126 140//126
f 138//127 123//127 125//127 139//127
f 137//128 121//128 123//128 138//128
f 136//129 118//129 121//129 137//129
o Cylinder.001
v 0.015674 2.466367 -0.253986
v 0.019167 3.227034 0.022685
v 0.028745 3.227034 0.026171
v 0.199847 2.466368 -0.186952
v 0.033842 3.227034 0.034998
v 0.292234 2.403041 -0.023413
v 0.032072 3.227034 0.045036
v 0.263809 2.466367 0.175798
v 0.024263 3.227034 0.051588
v 0.113670 2.466367 0.301780
v 0.014070 3.227034 0.051588
v -0.087932 2.403041 0.295584
v 0.006262 3.227034 0.045036
v -0.232462 2.466367 0.175798
v 0.004492 3.227034 0.034998
v -0.266496 2.466367 -0.017217
v 0.009589 3.227034 0.026171
v -0.174109 2.403041 -0.193148
v -0.005440 -0.809443 -0.939428
v 0.637348 -0.809443 -0.705472
v 0.979368 -1.003520 -0.113076
v 0.860586 -1.003520 0.560572
v 0.336580 -0.809443 1.000265
v -0.353069 -0.872769 0.994068
v -0.871465 -1.003520 0.560572
v -0.990247 -1.003520 -0.113076
v -0.653837 -1.066847 -0.711668
v -1.162461 -1.054853 -0.150182
v -0.862932 -0.453387 -0.094124
v -0.569643 -0.516713 -0.618026
v -0.766733 -1.118179 -0.851516
v -0.002290 -0.453387 -0.816288
v -0.006855 -1.054853 -1.119851
v -1.023078 -1.054853 0.640299
v -0.759126 -0.453387 0.494589
v -0.413802 -1.118179 1.150053
v -0.306797 -0.516713 0.872648
v 0.394483 -1.054853 1.156250
v 0.296607 -0.453387 0.878845
v 1.009368 -1.054853 0.640300
v 0.754545 -0.453387 0.494589
v 1.143143 -1.118179 -0.156378
v 0.858351 -0.453387 -0.094124
v 0.747414 -1.054853 -0.845319
v 0.559453 -0.453387 -0.611830
v -0.470645 1.692862 -0.047718
v -0.162981 2.516458 0.010068
v -0.106769 2.453131 -0.103204
v -0.309076 1.629535 -0.343475
v 0.015024 2.516458 -0.139296
v 0.010725 1.692862 -0.451635
v -0.412585 1.692862 0.281558
v -0.141511 2.516458 0.131830
v -0.162062 1.629536 0.490282
v -0.052405 2.453131 0.205109
v 0.177903 1.692862 0.496478
v 0.076845 2.516458 0.211305
v 0.434034 1.692862 0.281558
v 0.171559 2.516458 0.131830
v 0.486486 1.629535 -0.053915
v 0.193029 2.516458 0.010068
v 0.324917 1.692862 -0.337279
v 0.131209 2.516458 -0.097008
v 0.005286 0.842699 -0.671042
v 0.010529 1.745409 -0.315061
v 0.242392 1.745409 -0.230669
v 0.463775 0.842699 -0.504165
v 0.365764 1.745409 -0.016983
v 0.702124 0.779372 -0.087815
v 0.322917 1.745409 0.226012
v 0.623007 0.842699 0.398883
v 0.133901 1.745409 0.384616
v 0.249243 0.842699 0.712509
v -0.118452 1.682083 0.378420
v -0.244281 0.779373 0.706312
v -0.301860 1.745409 0.226012
v -0.612436 0.842699 0.398883
v -0.344706 1.745409 -0.016983
v -0.697161 0.842699 -0.081619
v -0.458813 0.779373 -0.510362
v -0.226943 1.682082 -0.236866
v -0.864248 0.078844 -0.105654
v -0.545192 0.894761 -0.046827
v -0.359524 0.831434 -0.384325
v -0.569569 0.015518 -0.631965
v 0.005569 0.894761 -0.508971
v 0.000399 0.078844 -0.831178
v -0.759959 0.078845 0.485799
v -0.478762 0.894761 0.329916
v -0.305499 0.015518 0.865646
v -0.191317 0.831434 0.569622
v 0.300687 0.078845 0.871843
v 0.196847 0.894761 0.575818
v 0.760756 0.078844 0.485799
v 0.489901 0.894761 0.329917
v 0.859436 0.015518 -0.111850
v 0.556331 0.894761 -0.046827
v 0.564756 0.078845 -0.625769
v 0.365054 0.894761 -0.378129
v -0.003388 -0.512941 -0.997131
v 0.001149 0.136518 -0.681816
v 0.474390 0.136519 -0.509570
v 0.669916 -0.512940 -0.752068
v 0.726197 0.136518 -0.073428
v 1.022565 -0.576267 -0.137744
v 0.638746 0.136519 0.422534
v 0.903752 -0.512940 0.574081
v 0.252955 0.136519 0.746250
v 0.354870 -0.512940 1.034648
v -0.256267 0.073192 0.740054
v -0.367254 -0.576267 1.028452
v -0.636448 0.136519 0.422534
v -0.910528 -0.512940 0.574081
v -0.723899 0.136518 -0.073428
v -1.034949 -0.512941 -0.131548
v -0.682301 -0.576267 -0.758265
v -0.477702 0.073192 -0.515766
v -0.018886 -1.314390 -0.264436
v -0.018886 -0.720161 -0.373037
v 0.231064 -0.720161 -0.282063
v 0.161257 -1.314390 -0.198870
v 0.364060 -0.720161 -0.051708
v 0.257109 -1.314390 -0.032850
v 0.317871 -0.720161 0.210242
v 0.223820 -1.314390 0.155942
v 0.114110 -0.720161 0.381218
v 0.076966 -1.314390 0.279167
v -0.151881 -0.720161 0.381218
v -0.114738 -1.314390 0.279166
v -0.355642 -0.720161 0.210242
v -0.261591 -1.314390 0.155942
v -0.401831 -0.720161 -0.051708
v -0.294880 -1.314390 -0.032850
v -0.268836 -0.720161 -0.282063
v -0.199028 -1.314390 -0.198870
v -0.018886 -1.895607 -0.373037
v 0.231064 -1.895607 -0.282063
v 0.364060 -1.895607 -0.051708
v 0.317871 -1.895607 0.210242
v 0.114110 -1.895607 0.381218
v -0.151881 -1.895607 0.381218
v -0.355642 -1.895607 0.210242
v -0.401831 -1.895607 -0.051708
v -0.268836 -1.895607 -0.282063
vn 0.3238 0.3221 -0.8896
vn 0.8730 0.3022 -0.3827
vn 0.9536 0.2971 0.0477
vn 0.6109 0.3112 0.7280
vn -0.1164 0.2965 0.9479
vn -0.5313 0.3015 0.7917
vn -0.9327 0.3210 0.1645
vn 0.0000 1.0000 -0.0000
vn -0.3809 0.3169 -0.8686
vn -0.7898 0.3166 -0.5253
vn 0.0415 -0.9991 0.0024
vn -0.7667 0.4310 -0.4757
vn -0.3356 0.4304 -0.8379
vn -0.8898 0.4285 0.1569
vn -0.5511 0.4230 0.7193
vn -0.0455 0.4187 0.9070
vn 0.5844 0.4163 0.6965
vn 0.9079 0.3960 0.1376
vn 0.8023 0.4025 -0.4408
vn 0.3093 0.4266 -0.8499
vn -0.7838 0.3370 -0.5217
vn -0.3783 0.3367 -0.8623
vn -0.9279 0.3351 0.1636
vn -0.5277 0.3288 0.7832
vn -0.1127 0.3256 0.9388
vn 0.6078 0.3254 0.7244
vn 0.9437 0.3122 0.1093
vn 0.8444 0.3173 -0.4317
vn 0.3224 0.3342 -0.8857
vn 0.3209 0.3458 -0.8817
vn 0.8325 0.3304 -0.4447
vn 0.9366 0.3260 0.1283
vn 0.6047 0.3390 0.7207
vn -0.0735 0.3409 0.9372
vn -0.5534 0.3441 0.7585
vn -0.9230 0.3487 0.1627
vn -0.3579 0.3490 -0.8661
vn -0.7906 0.3500 -0.5024
vn -0.7957 0.3507 -0.4939
vn -0.3486 0.3496 -0.8696
vn -0.9228 0.3491 0.1627
vn -0.5664 0.3446 0.7487
vn -0.0551 0.3408 0.9385
vn 0.6048 0.3385 0.7208
vn 0.9359 0.3243 0.1375
vn 0.8290 0.3293 -0.4520
vn 0.3209 0.3461 -0.8816
vn 0.3114 0.4133 -0.8557
vn 0.8077 0.3910 -0.4412
vn 0.9129 0.3849 0.1357
vn 0.5881 0.4035 0.7009
vn -0.0509 0.4056 0.9126
vn -0.5513 0.4096 0.7268
vn -0.8960 0.4150 0.1580
vn -0.3404 0.4168 -0.8429
vn -0.7708 0.4174 -0.4812
vn 0.1824 -0.8628 0.4715
vn 0.4346 -0.8567 0.2778
vn 0.4511 -0.8889 -0.0795
vn 0.0338 -0.8164 -0.5765
vn 0.3326 -0.8240 -0.4586
vn -0.3049 -0.8804 -0.3633
vn -0.6502 -0.7582 0.0485
vn -0.6189 -0.7661 0.1734
vn -0.1439 -0.9072 0.3954
vn -0.1295 -0.9255 0.3559
vn -0.5359 -0.8196 0.2028
vn -0.5873 -0.8093 -0.0082
vn -0.2691 -0.9081 -0.3207
vn 0.1984 -0.8870 -0.4170
vn 0.1156 -0.8858 -0.4495
vn 0.3987 -0.9144 -0.0703
vn 0.3033 -0.9077 0.2901
vn 0.2296 -0.9091 0.3477
vn 0.2137 -0.9379 0.2733
vn 0.2322 -0.9377 0.2586
vn 0.3356 -0.9401 -0.0592
vn 0.1208 -0.9255 -0.3590
vn 0.1379 -0.9257 -0.3523
vn -0.2263 -0.9360 -0.2697
vn -0.5129 -0.8581 -0.0235
vn -0.4618 -0.8659 0.1920
vn -0.1107 -0.9462 0.3041
vn -0.1302 -0.9247 0.3577
vn -0.5031 -0.8320 0.2339
vn -0.5695 -0.8205 -0.0494
vn -0.2660 -0.9104 -0.3170
vn 0.1072 -0.9038 -0.4144
vn 0.1839 -0.9047 -0.3844
vn 0.3927 -0.9170 -0.0692
vn 0.2232 -0.9201 0.3218
vn 0.2799 -0.9193 0.2765
vn 0.2434 -0.9398 0.2401
vn 0.1938 -0.9402 0.2801
vn 0.3381 -0.9392 -0.0596
vn 0.1572 -0.9309 -0.3297
vn 0.0922 -0.9303 -0.3550
vn -0.2282 -0.9348 -0.2720
vn -0.4989 -0.8656 -0.0432
vn -0.4422 -0.8730 0.2057
vn -0.1133 -0.9435 0.3114
vn -0.2817 -0.5673 0.7738
vn -0.6966 -0.6658 0.2673
vn -0.4648 -0.8844 -0.0418
vn -0.5116 -0.7239 -0.4627
vn 0.0523 -0.5359 -0.8427
vn 0.4635 -0.7303 -0.5019
vn 0.2956 -0.9539 -0.0521
vn 0.3663 -0.7441 0.5587
vn 0.2118 -0.9540 0.2122
vn 0.3371 -0.1693 -0.9261
vn 0.8535 -0.1693 -0.4928
vn 0.9706 -0.1693 0.1711
vn 0.6335 -0.1693 0.7550
vn -0.0000 -0.1693 0.9856
vn -0.6335 -0.1693 0.7550
vn -0.9706 -0.1693 0.1711
vn -0.3371 -0.1693 -0.9261
vn -0.8535 -0.1693 -0.4928
vn 0.0000 -1.0000 -0.0000
vn -0.8530 0.1729 -0.4925
vn -0.3369 0.1729 -0.9255
vn -0.9700 0.1729 0.1710
vn -0.6331 0.1729 0.7545
vn -0.0000 0.1729 0.9849
vn 0.6331 0.1729 0.7545
vn 0.9700 0.1729 0.1710
vn 0.8530 0.1729 -0.4925
vn 0.3369 0.1729 -0.9255
usemtl Leaves.001
s 1
f 145//130 146//130 147//130 148//130
f 148//131 147//131 149//131 150//131
f 150//132 149//132 151//132 152//132
f 152//133 151//133 153//133 154//133
f 154//134 153//134 155//134 156//134
f 156//135 155//135 157//135 158//135
f 158//136 157//136 159//136 160//136
f 147//137 146//137 161//137 159//137 157//137 155//137 153//137 151//137 149//137
f 162//138 161//138 146//138 145//138
f 160//139 159//139 161//139 162//139
f 163//140 164//140 165//140 166//140 167//140 168//140 169//140 170//140 171//140
f 172//141 173//141 174//141 175//141
f 175//142 174//142 176//142 177//142
f 178//143 179//143 173//143 172//143
f 180//144 181//144 179//144 178//144
f 182//145 183//145 181//145 180//145
f 184//146 185//146 183//146 182//146
f 186//147 187//147 185//147 184//147
f 188//148 189//148 187//148 186//148
f 177//149 176//149 189//149 188//149
f 190//150 191//150 192//150 193//150
f 193//151 192//151 194//151 195//151
f 196//152 197//152 191//152 190//152
f 198//153 199//153 197//153 196//153
f 200//154 201//154 199//154 198//154
f 202//155 203//155 201//155 200//155
f 204//156 205//156 203//156 202//156
f 206//157 207//157 205//157 204//157
f 195//158 194//158 207//158 206//158
f 208//159 209//159 210//159 211//159
f 211//160 210//160 212//160 213//160
f 213//161 212//161 214//161 215//161
f 215//162 214//162 216//162 217//162
f 217//163 216//163 218//163 219//163
f 219//164 218//164 220//164 221//164
f 221//165 220//165 222//165 223//165
f 224//166 225//166 209//166 208//166
f 223//167 222//167 225//167 224//167
f 226//168 227//168 228//168 229//168
f 229//169 228//169 230//169 231//169
f 232//170 233//170 227//170 226//170
f 234//171 235//171 233//171 232//171
f 236//172 237//172 235//172 234//172
f 238//173 239//173 237//173 236//173
f 240//174 241//174 239//174 238//174
f 242//175 243//175 241//175 240//175
f 231//176 230//176 243//176 242//176
f 244//177 245//177 246//177 247//177
f 247//178 246//178 248//178 249//178
f 249//179 248//179 250//179 251//179
f 251//180 250//180 252//180 253//180
f 253//181 252//181 254//181 255//181
f 255//182 254//182 256//182 257//182
f 257//183 256//183 258//183 259//183
f 260//184 261//184 245//184 244//184
f 259//185 258//185 261//185 260//185
f 191//186 160//186 162//186 192//186
f 192//187 162//187 145//187 194//187
f 197//188 158//188 160//188 191//188
f 199//189 156//189 158//189 197//189
f 201//190 154//190 156//190 199//190
f 203//191 152//191 154//191 201//191
f 205//192 150//192 152//192 203//192
f 207//193 148//193 150//193 205//193
f 194//194 145//194 148//194 207//194
f 209//195 195//195 206//195 210//195
f 210//196 206//196 204//196 212//196
f 212//197 204//197 202//197 214//197
f 214//198 202//198 200//198 216//198
f 216//199 200//199 198//199 218//199
f 218//200 198//200 196//200 220//200
f 220//201 196//201 190//201 222//201
f 225//202 193//202 195//202 209//202
f 222//203 190//203 193//203 225//203
f 227//204 223//204 224//204 228//204
f 228//205 224//205 208//205 230//205
f 233//206 221//206 223//206 227//206
f 235//207 219//207 221//207 233//207
f 237//208 217//208 219//208 235//208
f 239//209 215//209 217//209 237//209
f 241//210 213//210 215//210 239//210
f 243//211 211//211 213//211 241//211
f 230//212 208//212 211//212 243//212
f 245//213 231//213 242//213 246//213
f 246//214 242//214 240//214 248//214
f 248//215 240//215 238//215 250//215
f 250//216 238//216 236//216 252//216
f 252//217 236//217 234//217 254//217
f 254//218 234//218 232//218 256//218
f 256//219 232//219 226//219 258//219
f 261//220 229//220 231//220 245//220
f 258//221 226//221 229//221 261//221
f 173//222 259//222 260//222 174//222
f 174//223 260//223 244//223 176//223
f 179//224 257//224 259//224 173//224
f 181//225 255//225 257//225 179//225
f 183//226 253//226 255//226 181//226
f 185//227 251//227 253//227 183//227
f 187//228 249//228 251//228 185//228
f 189//229 247//229 249//229 187//229
f 176//230 244//230 247//230 189//230
f 163//231 177//231 188//231 164//231
f 164//232 188//232 186//232 165//232
f 165//233 186//233 184//233 166//233
f 166//234 184//234 182//234 167//234
f 167//235 182//235 180//235 168//235
f 168//236 180//236 178//236 169//236
f 169//237 178//237 172//237 170//237
f 171//238 175//238 177//238 163//238
f 170//239 172//239 175//239 171//239
usemtl Bark.001
f 262//240 263//240 264//240 265//240
f 265//241 264//241 266//241 267//241
f 267//242 266//242 268//242 269//242
f 269//243 268//243 270//243 271//243
f 271//244 270//244 272//244 273//244
f 273//245 272//245 274//245 275//245
f 275//246 274//246 276//246 277//246
f 264//137 263//137 278//137 276//137 274//137 272//137 270//137 268//137 266//137
f 279//247 278//247 263//247 262//247
f 277//248 276//248 278//248 279//248
f 280//249 281//249 282//249 283//249 284//249 285//249 286//249 287//249 288//249
f 287//250 277//250 279//250 288//250
f 288//251 279//251 262//251 280//251
f 286//252 275//252 277//252 287//252
f 285//253 273//253 275//253 286//253
f 284//254 271//254 273//254 285//254
f 283//255 269//255 271//255 284//255
f 282//256 267//256 269//256 283//256
f 281//257 265//257 267//257 282//257
f 280//258 262//258 265//258 281//258
